<svg width="20" height="20" viewBox="0 0 20 20" fill="none" xmlns="http://www.w3.org/2000/svg">
<g clip-path="url(#clip0_1616_2171)">
<path d="M13.3333 16.6666V3.33329C13.3333 2.89127 13.1577 2.46734 12.8452 2.15478C12.5326 1.84222 12.1087 1.66663 11.6667 1.66663H8.33332C7.8913 1.66663 7.46737 1.84222 7.15481 2.15478C6.84225 2.46734 6.66666 2.89127 6.66666 3.33329V16.6666" stroke="#057DCD" stroke-width="1.66667" stroke-linecap="round" stroke-linejoin="round"/>
<path d="M16.6667 5H3.33332C2.41285 5 1.66666 5.74619 1.66666 6.66667V15C1.66666 15.9205 2.41285 16.6667 3.33332 16.6667H16.6667C17.5871 16.6667 18.3333 15.9205 18.3333 15V6.66667C18.3333 5.74619 17.5871 5 16.6667 5Z" stroke="#057DCD" stroke-width="1.66667" stroke-linecap="round" stroke-linejoin="round"/>
</g>
<defs>
<clipPath id="clip0_1616_2171">
<rect width="20" height="20" fill="white"/>
</clipPath>
</defs>
</svg>
